{
  "accessors": [
    {
      "bufferView": 1,
      "componentType": 5126,
      "count": 146,
      "max": [
        0.9873700141906738,
        0.9840400218963623,
        0.4187000095844269
      ],
      "min": [
        -0.9901400208473206,
        -0.9829300045967102,
        -0.7904700040817261
      ],
      "type": "VEC3"
    },
    {
      "bufferView": 1,
      "byteOffset": 1752,
      "componentType": 5126,
      "count": 146,
      "max": [
        0.8925269246101379,
        0.8937768936157227,
        1.0
      ],
      "min": [
        -0.8922318816184998,
        -0.8939005136489868,
        -0.7675309181213379
      ],
      "type": "VEC3"
    },
    {
      "bufferView": 0,
      "componentType": 5125,
      "count": 210,
      "type": "SCALAR"
    }
  ],
  "asset": {
    "extras": {
      "author": "Jiří Kuba (https://sketchfab.com/kuba.jirka)",
      "license": "CC-BY-4.0 (http://creativecommons.org/licenses/by/4.0/)",
      "source": "https://sketchfab.com/3d-models/diamond-0363f038a3ad4c5da234490c9879805e",
      "title": "Diamond"
    },
    "generator": "Sketchfab-12.68.0",
    "version": "2.0"
  },
  "bufferViews": [
    {
      "buffer": 0,
      "byteLength": 840,
      "name": "floatBufferViews",
      "target": 34963
    },
    {
      "buffer": 0,
      "byteLength": 3504,
      "byteOffset": 840,
      "byteStride": 12,
      "name": "floatBufferViews",
      "target": 34962
    }
  ],
  "buffers": [
    {
      "byteLength": 4344,
      "uri": "scene.bin"
    }
  ],
  "materials": [
    {
      "doubleSided": true,
      "name": "DiamondMaterial",
      "pbrMetallicRoughness": {
        "metallicFactor": 0.6724466463414634,
        "roughnessFactor": 0.0
      }
    }
  ],
  "meshes": [
    {
      "name": "Diamond_0",
      "primitives": [
        {
          "attributes": {
            "NORMAL": 1,
            "POSITION": 0
          },
          "indices": 2,
          "material": 0,
          "mode": 4
        }
      ]
    }
  ],
  "nodes": [
    {
      "children": [
        1
      ],
      "matrix": [
        1.0,
        0.0,
        0.0,
        0.0,
        0.0,
        2.220446049250313e-16,
        -1.0,
        0.0,
        0.0,
        1.0,
        2.220446049250313e-16,
        0.0,
        0.0,
        0.0,
        0.0,
        1.0
      ],
      "name": "Sketchfab_model"
    },
    {
      "children": [
        2
      ],
      "name": "Root"
    },
    {
      "children": [
        3
      ],
      "name": "Diamond"
    },
    {
      "mesh": 0,
      "name": "Diamond_0"
    }
  ],
  "scene": 0,
  "scenes": [
    {
      "name": "Sketchfab_Scene",
      "nodes": [
        0
      ]
    }
  ]
}
